<?xml version="1.0" encoding="UTF-8"?>
<svg id="Calque_2" xmlns="http://www.w3.org/2000/svg" viewBox="0 0 140.6 17.64">
  <defs>
    <style>
      .cls-1 {
        font-family: HurmeGeometricSans3-Bold, 'Hurme Geometric Sans 3';
        font-size: 1.43px;
      }

      .cls-1, .cls-2, .cls-3 {
        font-weight: 700;
      }

      .cls-1, .cls-4, .cls-5 {
        fill: #2e2e2e;
      }

      .cls-2 {
        fill: #2da3dc;
      }

      .cls-2, .cls-3 {
        font-family: Purista-Bold, Purista;
        font-size: 7.31px;
      }

      .cls-3, .cls-6 {
        fill: #0481c3;
      }

      .cls-5 {
        font-family: HurmeGeometricSans3-Black, 'Hurme Geometric Sans 3';
        font-size: 3.81px;
        font-weight: 800;
      }

      .cls-7 {
        fill: #dc052b;
      }

      .cls-8 {
        letter-spacing: -.06em;
      }

      .cls-9 {
        letter-spacing: -.13em;
      }

      .cls-10 {
        letter-spacing: -.02em;
      }

      .cls-11 {
        letter-spacing: -.03em;
      }

      .cls-12 {
        letter-spacing: -.02em;
      }

      .cls-13 {
        letter-spacing: -.02em;
      }

      .cls-14 {
        letter-spacing: -.04em;
      }

      .cls-15 {
        letter-spacing: -.03em;
      }

      .cls-16 {
        letter-spacing: 0em;
      }

      .cls-17 {
        letter-spacing: 0em;
      }
    </style>
  </defs>
  <g id="Design">
    <g>
      <path class="cls-6" d="M98.58,4.19l-2.24-4.19-11.77,7.28,2.24,4.19-3.2,1.98,2.24,4.19,11.77-7.28-2.24-4.19,3.2-1.98ZM93.68,9.32l-4.67,2.89-.89-1.66,1.27-.79-.89-1.66,4.67-2.89.89,1.66-1.27.79.89,1.66Z"/>
      <g>
        <text class="cls-2" transform="translate(100.85 14.2)"><tspan x="0" y="0">SYSCOMAK</tspan></text>
        <text class="cls-3" transform="translate(100.85 14.2)"><tspan x="0" y="0">SYSCOMAK</tspan></text>
      </g>
      <text class="cls-5" transform="translate(100.84 7.96)"><tspan class="cls-11" x="0" y="0">R</tspan><tspan class="cls-9" x="2.49" y="0">A</tspan><tspan class="cls-8" x="4.87" y="0">Y</tspan><tspan class="cls-17" x="7.37" y="0">C</tspan><tspan class="cls-14" x="10.04" y="0">O</tspan></text>
      <text class="cls-1" transform="translate(115.78 16.31)"><tspan x="0" y="0">C</tspan><tspan class="cls-16" x="1.02" y="0">U</tspan><tspan class="cls-13" x="2.03" y="0">S</tspan><tspan class="cls-12" x="2.83" y="0">T</tspan><tspan x="3.59" y="0">OM ENGINEERING</tspan><tspan class="cls-16" x="16.29" y="0"> </tspan><tspan x="16.86" y="0">SO</tspan><tspan class="cls-15" x="18.85" y="0">L</tspan><tspan x="19.55" y="0">UTION</tspan><tspan class="cls-10" x="24.02" y="0">S</tspan></text>
    </g>
    <g>
      <path class="cls-7" d="M.15,4.45l.98-.98c.09-.09.22-.15.36-.15h8.03c.13,0,.26.05.36.15l.98.98c.09.09.15.22.15.36v8.03c0,.13-.05.26-.15.36l-.98.98c-.09.09-.22.15-.36.15h-5.22s5.75-10.24,5.75-10.24l-.25-.25S6.02,9.58,0,12.79v-7.99c0-.13.05-.26.15-.36"/>
      <g>
        <polygon class="cls-7" points="42.34 12.35 40.17 5.29 42.06 5.29 43.26 9.14 44.31 5.29 45.86 5.29 46.9 9.13 48.11 5.29 49.99 5.29 47.82 12.35 46.12 12.35 45.08 8.73 44.04 12.35 42.34 12.35"/>
        <polygon class="cls-7" points="53.45 7.25 52.22 10.2 51.04 7.25 49.1 7.25 51.27 12.41 50.47 14.32 52.39 14.32 55.41 7.25 53.45 7.25"/>
        <rect class="cls-7" x="55.69" y="5.29" width="1.87" height="7.06"/>
        <path class="cls-7" d="M58.25,7.25h1.87v5.11h-1.87v-5.11ZM58.46,6.72c-.41-.41-.41-1.05,0-1.45.41-.41,1.05-.41,1.46,0,.41.4.41,1.04,0,1.45-.41.4-1.05.4-1.46,0"/>
        <path class="cls-7" d="M64.36,9.17c0-.32-.41-.61-.89-.61-.53,0-.96.27-.99.61h1.88ZM60.59,9.77c0-.8.27-1.44.81-1.92.54-.49,1.23-.73,2.07-.73s1.47.25,1.99.76c.52.5.77,1.11.77,1.85,0,.19,0,.39-.03.57h-3.73c.03.36.48.6,1.14.6.44,0,.8-.13,1.09-.4l1.06,1.01c-.63.63-1.38.94-2.26.94s-1.57-.24-2.11-.72c-.54-.49-.8-1.12-.8-1.93v-.05Z"/>
        <path class="cls-4" d="M15.2,8.61h1.07c.52,0,.83-.3.83-.83,0-.45-.29-.75-.67-.75h-1.24v1.58ZM13.28,12.35v-7.06h3.21c.7,0,1.3.23,1.79.71.5.48.74,1.04.74,1.72,0,.9-.48,1.68-1.21,2.02l1.76,2.61h-2.21l-1.44-2.2h-.73v2.2h-1.93Z"/>
        <path class="cls-4" d="M22.15,10.77c.58,0,1.06-.44,1.06-.97s-.49-.97-1.06-.97-1.06.45-1.06.97.49.97,1.06.97M19.95,7.96c.48-.52,1.08-.77,1.8-.77s1.21.2,1.41.6v-.54h1.83v5.11h-1.83v-.54c-.2.4-.67.6-1.41.6s-1.33-.25-1.8-.76-.72-1.13-.72-1.85.24-1.34.72-1.84"/>
        <polygon class="cls-4" points="29.58 7.25 28.36 10.2 27.17 7.25 25.23 7.25 27.4 12.41 26.6 14.32 28.52 14.32 31.54 7.25 29.58 7.25"/>
        <path class="cls-4" d="M36.29,8.12l-1.2,1.15c-.29-.3-.63-.46-1.02-.46-.57,0-1.02.42-1.02.97s.46.97,1.02.97c.39,0,.73-.15,1.02-.46l1.2,1.15c-.63.69-1.37,1.03-2.22,1.03-.8,0-1.49-.25-2.05-.77-.56-.52-.83-1.16-.83-1.93s.27-1.41.83-1.93c.56-.52,1.25-.77,2.05-.77.85,0,1.59.34,2.22,1.03"/>
        <path class="cls-4" d="M39.86,10.46c.21-.19.31-.43.31-.7s-.1-.51-.31-.7c-.21-.19-.46-.29-.74-.29-.58,0-1.05.46-1.05.99s.48.99,1.05.99c.28,0,.53-.1.74-.29M41.17,7.86c.57.53.85,1.17.85,1.9s-.28,1.38-.85,1.92c-.57.53-1.25.79-2.05.79s-1.49-.26-2.06-.79c-.56-.54-.84-1.18-.84-1.92s.28-1.38.84-1.9c.57-.54,1.26-.8,2.06-.8s1.48.26,2.05.8"/>
      </g>
    </g>
  </g>
</svg>